<?xml version="1.0" encoding="utf-8"?>
<!-- Generator: Adobe Illustrator 27.0.0, SVG Export Plug-In . SVG Version: 6.00 Build 0)  -->
<svg version="1.1" id="Layer_1" xmlns="http://www.w3.org/2000/svg" xmlns:xlink="http://www.w3.org/1999/xlink" x="0px" y="0px"
	 viewBox="0 0 841.9 1024" style="enable-background:new 0 0 841.9 1024;" xml:space="preserve">
<style type="text/css">
	.st0{fill:#2C7A7B;}
</style>
<path class="st0" d="M195.3,729.8c13.6-27.5,33.6-49.2,57-68.3c-3.1-4.4-7.3-6.8-10.7-9.8c-40.4-36.3-63-81.3-68.5-135.4
	c-4.5-43.5-7.1-87.2-10-130.9c-4.9-74.5,12.9-143.3,58.1-203.5c37-49.4,86.4-81.4,146.1-96.5c81.1-20.6,156-5.9,223.5,43.6
	c47.4,34.8,78,81.9,95.5,137.7c13.3,42.1,16,85.3,12.4,129.1c-1.8,21.9-2.5,43.9-4.5,65.8c-2.5,28.3-2,57-9.2,84.8
	c-11.5,44.2-34.6,81-70.4,109.6c-1.5,1.2-3.6,1.9-4.3,4.9c3,2.7,6.3,5.7,9.6,8.6c31.6,27.7,54,61.1,62.7,102.8
	c2.2,10.3,3.5,20.8,3.5,31.4c0.1,41.8,0.2,83.6,0,125.4c-0.1,20.8-8.1,37.6-27.1,47.8c-8.6,4.6-18,5-27.5,5
	c-110.3,0-220.6,0-330.9,0c-24.5,0-49,0.1-73.5,0c-28.9-0.1-49.7-20.8-49.8-49.7c-0.1-44.3-0.1-88.5,0.1-132.8
	C177.3,774.8,184.3,752,195.3,729.8 M561.1,243c-30.9-18.3-53.5-44.5-71.9-76.2c-33.2,39.3-71.7,70.3-116.9,93.7
	c5,6.4,4.9,12.1,0.4,17.4c-4.7,5.5-10.5,3.7-16.2,2c-6.6-1.9-13.2-2.6-19.8,0c-27.8,10.9-55.4,22.3-84.1,30.8
	c-3,0.9-4.2,2.6-4.6,5.8c-2.3,19.5-2.5,39.1,0.5,58.5c10.2,64.8,41.5,116.7,97.1,152.5c37.2,23.9,78.1,32.3,121.2,21.4
	c75.2-19,120.3-69.7,141.5-142.3c13.3-45.8,9.5-92-3.9-137.6c-1-3.3-2.7-5.5-6-6.7C585.5,257.6,573.7,250.5,561.1,243 M437.1,732.6
	c-9.6-0.1-19.3,0.4-28.9-1.6c-39.1-8.4-69.7-28.9-90-63.8c-2.6-4.5-5-3.2-8.1-1.1c-11.7,7.9-23.4,15.9-34.4,24.8
	c-3.5,2.8-5.1,5.7-5,10.2c0.2,14.8,0,29.6,0,44.5c-0.1,63.1-0.2,126.2-0.2,189.2c0,8.9,0.3,8.9,9.2,8.9
	c89.6,0.1,179.2,0.1,268.9,0.1c12.1,0,24.3-0.2,36.4-0.2c4.6,0,7.4-1.8,7.4-6.6c0.2-23.6,0.9-47.2-0.5-70.7
	c-0.6-9.5-3.8-10.5-11.4-4.7c-16.7,12.7-35.6,16.7-56,12.8c-29.3-5.6-58.4-37.8-52.3-77.6c5.3-34.4,41.5-62.5,75.8-56.1
	c12.7,2.4,24.5,6.8,34.8,15.2c5.4,4.5,8.2,3.1,9.4-3.9c0.2-1.1,0.3-2.2,0.3-3.3c0.1-15.7,0.1-31.4,0.2-47.2c0-4.3-1.6-7.6-5-10.5
	c-10.1-8.6-20.9-16.2-32-23.6c-7.5-5-8.1-4.8-12.8,3C519.1,709.9,483.2,728.9,437.1,732.6 M262,197.9
	c-17.2,10.6-47.6,62.9-47.6,81.9c0.8,0.1,1.7,0.5,2.5,0.4c1.8-0.2,3.6-0.5,5.3-0.9c63.6-16.4,123.1-41.7,176.6-80.6
	c27.1-19.7,50.7-42.9,71.8-68.8c7.7-9.4,7.1-10.6-5.1-12.7c-5.1-0.9-10.2-1.2-16.6-1.9 M448.8,115.3c-39.1-2.1-76.4,5.4-111.9,21.7
	c-16.4,7.5-31.6,17.2-45.4,28.7c-4.8,4-7.5,7.6-15,4.1 M581.4,638.5c2.2,0,3.7-1.6,5.2-2.9c33-28.5,57.2-62.4,63.9-106.7
	c1.4-9.5,2.9-19.1,4-28.6c1.1-10.2,2-20.5,2.5-30.8c0.2-3.1,0.4-9.3-4.7-7.5c-14.5,5.1-32.8,4.5-38.7,23.7c-0.3,1-1.1,2-1.7,2.9
	c-23.5,32-50.7,59.9-86.5,78.2c-4.5,2.3-6.6,5.4-6.5,10.6c0.1,7.6,0.7,15.2,1.6,22.8c0.4,3,1.6,5.2,4.4,7
	C542.7,618.7,562.1,627.7,581.4,638.5 M373.3,623.5c-3.1,8.3-7,15.9-15.1,20.7c-9.1,5.4-9.1,5.8-2.3,14.4
	c23.7,30.1,54.9,41.9,92.3,35.9c25.9-4.1,47-16.9,62.2-38.8c3.1-4.4,2.4-7.3-2.3-9.4c-9.8-4.4-14.9-12.4-17.8-22.4
	c-1.8-6.2-3.7-12.4-4.7-18.9c-0.7-4.5-0.5-9.4-3.5-13.3c-0.9,0.1-1.6,0.1-2.2,0.3c-1.3,0.4-2.5,0.9-3.8,1.4
	c-29.8,11.5-59.6,14.2-89.6,0.9c-5-2.2-6.9-0.2-7.6,4.7C377.8,606.9,376.6,614.9,373.3,623.5 M519.6,768.7
	c-21.9,10.7-31.1,35.8-21.1,57.4c10.3,22.3,36.2,31.9,59.2,21.8c21.3-9.3,31.1-34.7,21.9-56.7C570.4,768.9,546,759.4,519.6,768.7
	 M254.1,598.6c14.3-0.1,22.2-5.9,23.9-17.3c0.7-4.8-1-8.9-3.1-12.8c-10.1-19.3-15.7-40-19-61.4c-1.7-11.1-5.3-21.7-11.8-31.2
	c-1.7-2.5-3.5-4.6-6.8-4.9c-7.3-0.5-13.9-3.3-20.6-5.9c-9.2-3.6-11.1-2.3-10.2,7.7c1.1,13.8,2.5,27.7,3.9,41.5
	c2.6,26.1,10.8,50.3,24.7,72.5C239.4,593.6,244.9,598,254.1,598.6 M634.2,943.6c9.5-1.6,14.8-6.9,14.7-17
	c-0.2-44.7,2.2-89.4-1.3-134c-1.5-19.2-8.7-37.3-18.8-54c-0.5,1.6-0.5,3-0.5,4.5c0,62.4,0,124.9,0.1,187.3c0,2.9,0.1,5.8,0.2,8.8
	C628.6,942.3,630.1,943.8,634.2,943.6 M215.2,932c1.1,3.3,2.9,6.1,5.6,8.2c3.1,2.5,6.7,4.4,10.6,3c4.3-1.6,2.4-5.8,2.4-8.9
	c0.1-61.8,0.1-123.5,0-185.3c0-2.3,0.9-4.9-1.2-7.4c-0.9,1.3-1.8,2.3-2.4,3.4c-10.3,18.9-15.9,39.1-16,60.5
	c-0.2,39.3,0,78.6,0,117.9C214.3,926.1,214.6,928.5,215.2,932 M537.1,169.8c8.2,11.8,15.6,24,31.8,27.9c8.2,0.9,17.7-1.8,25.9-0.2
	c2.5,0.5,5.2,1.3,7.8-0.6c0.2-3.5-2-6-4-8.3c-20.2-22.6-43.9-40.4-71.5-53c-2-0.9-4.1-2.6-6.3-0.8c-2.5,2.1-1,4.6-0.1,6.8
	C525,151.4,529.8,160.8,537.1,169.8 M191.9,350.8c-13.9,31.9,5.3,68.9,30.1,74.9c-11.3-31.4-11.7-63.4-11-97
	C201.2,334.5,196.1,341.6,191.9,350.8 M651.1,375.4c-1.6,17.3-5.4,34.1-10.2,51.3c21.2-6.4,35.6-31.7,33.9-58.4
	c-1-16.1-12.5-34.6-23.7-36.5C651.1,346,651.1,360,651.1,375.4 M308.2,578.1c4.4,7,10.6,12.6,14,20.4c2.3,5.3,7.9,6.9,13.6,7.1
	c4.3,0.1,6.8-1.7,7.3-6.1c0.8-8,1.8-16,1.5-24.1c-0.1-2.7-0.9-4.8-3.2-6.2c-11.8-7.3-23.5-14.7-35.4-22c-1.4-0.9-3-2.1-5-1
	c-2,1.2-5.5,13.9-4.2,15.8C300.3,567.2,302.8,573.1,308.2,578.1z"/>
<path class="st0" d="M387.1,331.2c11.2,25.9-7.9,55.7-37,56.1c-11.3,0.1-20.9-4.6-28.8-12.7c-2.6-2.7-4.7-3.9-8-1.1
	c-3.7,3.2-7.8,3.7-11.5,0c-3.5-3.5-3-7.7-0.9-11.9c1-2,2.2-3.9,3.3-5.8c-2.3-3.7-6.6-4.1-9.4-6.6c-6.8-6.2-11.6-13.7-14-22.6
	c-0.5-1.9-1.7-4,0-5.8c1.9-2,4.3-0.6,6.3,0.1c7.6,2.6,15.2,5.4,23.4,8.3c0.2-4.2-3.2-6.5-3.1-9.9c0.2-3-0.1-6.1,2.9-7.7
	c2.7-1.4,5.7-0.5,7.5,1.4c3.6,3.8,6.5,2.7,10.4,0.4C350.8,300.2,375.1,307.6,387.1,331.2 M337.5,324.5c-2.3-3-5.1-5.6-8.9-3.2
	c-2.9,1.8-4.8,4.9-3,8.6c1.4,2.7,3.8,4.7,7,3.8C336.7,332.5,339.4,330.2,337.5,324.5z"/>
<path class="st0" d="M554.1,310.3c2.6,1.4,5,2.4,6.9,3.9c3,2.3,5.3,2.3,8.3-0.2c2.9-2.4,6.5-5.2,10.2-1.8c3.9,3.5,2.2,7.8,0.1,11.7
	c-0.6,1.1-1.5,2.2-3.4,4.7c11-3.6,20.5-6.7,30-9.8c3,12.1-6.4,26.1-23.1,35.4c3.3,5.9,9.6,11.7,2.5,18.8c-5.1,5-9.8,2.3-14.5-1.7
	c-9.4,9.5-20.1,16.2-33.8,15.8c-9.1-0.3-17.1-3.6-23.9-9.6c-15.4-13.7-18.8-35.4-8.4-52.6C514.5,309.2,534.4,303.2,554.1,310.3
	 M525.9,332c3.3-3.3,3.4-6.7,0.1-9.9c-2.4-2.4-5.3-2.5-7.9-0.4c-2.5,2-4.5,4.6-2.5,8.1C517.9,333.6,520.9,335.2,525.9,332z"/>
<path class="st0" d="M559.3,256.6c9.8,3.3,18,8.2,25.6,14.4c3.2,2.6,5.9,5.4,7.8,9.2c2.5,5,1.7,9.7-2,13.7
	c-3.8,4.1-8.7,4.4-13.6,2.1c-2.2-1-4.2-2.6-6.1-4.1c-16.1-12.5-33.8-16.9-53.7-11.3c-7.8,2.2-13.7-0.4-16-6.8
	c-2.1-5.9,1.2-12.9,8.1-15.7C525.6,251.3,542.2,251.5,559.3,256.6z"/>
<path class="st0" d="M452.7,462c7-1.9,12.3-5.4,16.6-10.5c4-4.8,8.8-5.1,13.8-1.9c5,3.2,6.8,9.5,4.5,14.8c-2.4,5.6-6.9,9.3-11.5,13
	c-20.5,16.3-51.7,14.4-69.4-4.1c-3-3.1-5.4-6.6-6.4-10.9c-1.3-5.8,1.1-10.3,5.7-13.3c4.7-3.1,9.2-1.3,12.6,2.5
	c5.8,6.5,13.1,9.8,21.5,11.5C444.5,463.8,448.2,462.7,452.7,462z"/>
<path class="st0" d="M421.5,784.1c8.4-10.3,19.7-13.1,29.3-7.7c9.1,5.2,13.5,16.8,10,26.7c-4.2,11.7-17.5,17.9-28.9,13.3
	C419.4,811.3,414.9,798.1,421.5,784.1z"/>
<path class="st0" d="M427.4,900.1c-11.6-10.3-12.2-25-1.8-34.4c9.4-8.5,24-7.1,32.1,3.2c5.7,7.2,5.9,18.6,0.3,26.3
	c-5,7-16,10.4-24.7,7.6C431.4,902.3,429.7,901.3,427.4,900.1z"/>
<g>
	<path class="st0" d="M564.7,779.9v54.6h-15.3v-38l-10.6,38H530L519,797.2v37.4h-5.3v-54.6h16.1l9.4,33l9.3-33H564.7z"/>
</g>
</svg>
